<svg class="icon icon--help" viewBox="0 0 128 128" xmlns="http://www.w3.org/2000/svg"><g fill="#000" fill-rule="evenodd"><path d="M64 2c34.242 0 62 27.758 62 62 0 34.242-27.758 62-62 62-34.242 0-62-27.758-62-62C2 29.758 29.758 2 64 2Zm0 12c-27.614 0-50 22.386-50 50s22.386 50 50 50 50-22.386 50-50-22.386-50-50-50Z" fill-rule="nonzero"/><circle cx="64" cy="98" r="8"/><path d="M64 25c13.737 0 26 11.037 26 25 0 9.668-2.916 15.943-10.354 20.721l-.648.406c-1.87 1.14-4.009 2.195-6.44 3.192l-.87.35c-.295.115-.593.23-.895.344l-.794.294L70 84H58V66.589l4.644-1.452.844-.27.814-.266 1.165-.394.74-.26.712-.257 1.015-.384.643-.255.616-.255.59-.255.564-.255c.183-.085.363-.17.538-.257l.515-.258.49-.26.236-.13.455-.265c3.105-1.857 4.535-3.944 5.102-6.956l.075-.437c.012-.074.023-.148.033-.223l.059-.457.025-.233.043-.477c.007-.081.013-.162.018-.244l.029-.5.02-.514.011-.53C78 50.367 78 50.186 78 50c0-7.037-6.625-13-14-13-7.097 0-12.522 5.525-12.044 13.181l.023.32-11.958.997C38.775 36.548 49.91 25 64 25Z" fill-rule="nonzero"/></g></svg>