<svg class="icon" xmlns="http://www.w3.org/2000/svg" viewBox="0 0 96 96"><defs><clipPath id="a"><path d="M96 0v96H0V0h96Z"/></clipPath><clipPath id="b"><path d="M.5 0C.776 0 1 1.343 1 3l-.005.424C.961 4.88.752 6 .5 6 .224 6 0 4.657 0 3l.005-.424C.039 1.12.248 0 .5 0Z"/></clipPath><clipPath id="c"><path d="M.5 0C.776 0 1 1.343 1 3l-.005.424C.961 4.88.752 6 .5 6 .224 6 0 4.657 0 3l.005-.424C.039 1.12.248 0 .5 0Z"/></clipPath><clipPath id="d"><path d="M2.5 0a2.5 2.5 0 1 1 0 5 2.5 2.5 0 0 1 0-5Zm0 1a1.5 1.5 0 1 0 0 3 1.5 1.5 0 0 0 0-3Z"/></clipPath><clipPath id="e"><path d="M2.5 0a2.5 2.5 0 1 1 0 5 2.5 2.5 0 0 1 0-5Zm0 1a1.5 1.5 0 1 0 0 3 1.5 1.5 0 0 0 0-3Z"/></clipPath><clipPath id="f"><path d="m15 0 5 3v8h68l3 5-3 5H20v84H10V21H0V11h10V3l5-3Z"/></clipPath><clipPath id="g"><path d="M2.5 0a2.5 2.5 0 1 1 0 5 2.5 2.5 0 0 1 0-5Zm0 1a1.5 1.5 0 1 0 0 3 1.5 1.5 0 0 0 0-3Z"/></clipPath><clipPath id="h"><path d="M2.5 0a2.5 2.5 0 1 1 0 5 2.5 2.5 0 0 1 0-5Zm0 1a1.5 1.5 0 1 0 0 3 1.5 1.5 0 0 0 0-3Z"/></clipPath><clipPath id="i"><path d="M64 0v44H0V0h64ZM33.575 5.66h-2.569v3.553c-1.477.141-2.82.54-4.028 1.196a7.496 7.496 0 0 0-2.867 2.71c-.704 1.149-1.056 2.532-1.056 4.15 0 1.877.546 3.32 1.636 4.328 1.091 1.009 2.786 1.865 5.084 2.568.282.094.563.176.844.247.282.07.552.152.81.246v4.679a13.968 13.968 0 0 1-3.184-.844c-.997-.4-1.836-.798-2.516-1.197-.68-.398-1.079-.668-1.196-.809L22 31.518c1.243.821 2.656 1.495 4.24 2.023 1.582.528 3.172.862 4.766 1.003v4.116h2.569v-4.046a13.076 13.076 0 0 0 4.151-.932c1.29-.528 2.328-1.337 3.114-2.428.785-1.09 1.178-2.515 1.178-4.274 0-1.548-.317-2.797-.95-3.747-.633-.95-1.53-1.712-2.691-2.287-1.161-.574-2.539-1.085-4.134-1.53a5.846 5.846 0 0 0-.545-.176 29.926 29.926 0 0 1-.51-.14v-4.75c.867.117 1.712.34 2.533.668.82.329 1.507.657 2.058.985.551.329.873.551.967.669l2.533-4.785c-.961-.563-2.105-1.114-3.43-1.653-1.325-.54-2.75-.88-4.274-1.02V5.66Zm-.387 19.526c.797.281 1.436.598 1.917.95.48.351.721.82.721 1.407 0 1.149-.88 1.77-2.638 1.864v-4.221Zm-1.76-10.871v4.257c-.797-.258-1.395-.552-1.794-.88-.398-.328-.598-.774-.598-1.337 0-1.22.798-1.9 2.393-2.04Z"/></clipPath><clipPath id="j"><path d="M11.575 0v3.553c1.524.141 2.949.481 4.274 1.02 1.325.54 2.469 1.091 3.43 1.654l-2.533 4.785c-.094-.118-.416-.34-.967-.669-.551-.328-1.237-.656-2.058-.985a10.628 10.628 0 0 0-2.533-.668v4.75c.164.046.334.093.51.14.176.047.357.106.545.176 1.595.445 2.973.956 4.134 1.53 1.16.575 2.058 1.337 2.691 2.287s.95 2.199.95 3.747c0 1.759-.393 3.184-1.178 4.274-.786 1.091-1.824 1.9-3.114 2.428-1.29.528-2.674.838-4.151.932V33H9.006v-4.116A20.824 20.824 0 0 1 4.24 27.88C2.656 27.353 1.243 26.68 0 25.858l2.533-5.03c.117.14.516.41 1.196.808.68.4 1.519.798 2.516 1.197.996.398 2.058.68 3.184.844v-4.68a8.152 8.152 0 0 0-.81-.245c-.281-.07-.562-.153-.844-.247-2.298-.703-3.993-1.56-5.084-2.568-1.09-1.008-1.636-2.45-1.636-4.327 0-1.619.352-3.002 1.056-4.152A7.496 7.496 0 0 1 4.978 4.75c1.208-.656 2.55-1.055 4.028-1.196V0h2.569Zm-.387 19.526v4.221c1.759-.093 2.638-.715 2.638-1.864 0-.587-.24-1.056-.721-1.408-.48-.351-1.12-.668-1.917-.95ZM9.428 8.655c-1.594.14-2.392.82-2.392 2.04 0 .563.2 1.009.598 1.337.399.328.997.622 1.795.88V8.655Z"/></clipPath></defs><g clip-path="url(#a)"><g clip-path="url(#b)" transform="translate(32 22)"><path d="M0 0h1v6H0V0z"/></g><g clip-path="url(#c)" transform="translate(83 22)"><path d="M0 0h1v6H0V0z"/></g><g clip-path="url(#d)" transform="translate(81 19)"><path d="M0 0h5v5H0V0z"/></g><g clip-path="url(#e)" transform="translate(30 19)"><path d="M0 0h5v5H0V0z"/></g><g clip-path="url(#f)" transform="translate(2 1)"><path d="M0 0h91v95H0V0z"/></g><g clip-path="url(#g)" transform="translate(30 26)"><path d="M0 0h5v5H0V0z"/></g><g clip-path="url(#h)" transform="translate(81 26)"><path d="M0 0h5v5H0V0z"/></g><g><g clip-path="url(#i)" transform="translate(26 28)"><path class="logo__sign" fill="#AD2E41" d="M0 0h64v44H0V0z"/></g><g clip-path="url(#j)" transform="translate(48 33.66)"><path class="logo__dollar" fill="#FFF" d="M0 0h20.018v33H0V0z"/></g></g></g></svg>